<?xml version="1.0" encoding="utf-8"?>
<!-- Generated by IcoMoon.io -->
<!DOCTYPE svg PUBLIC "-//W3C//DTD SVG 1.1//EN" "http://www.w3.org/Graphics/SVG/1.1/DTD/svg11.dtd">
<svg version="1.1" xmlns="http://www.w3.org/2000/svg" xmlns:xlink="http://www.w3.org/1999/xlink" width="28" height="32" viewBox="0 0 28 32">
<path fill="#00c782" d="M21.411 8.566l-2.115 2.123c1.417 1.418 2.202 3.304 2.202 5.31 0 4.136-3.362 7.498-7.498 7.498v-1.5l-2.999 2.999 2.999 2.999v-1.5c5.788 0 10.498-4.71 10.498-10.498 0-2.809-1.096-5.448-3.087-7.434zM16.999 7.002l-2.999-2.999v1.5c-5.788 0-10.498 4.71-10.498 10.498 0 2.809 1.095 5.448 3.087 7.434l2.115-2.123c-1.417-1.418-2.202-3.304-2.202-5.31 0-4.136 3.362-7.498 7.498-7.498v1.5l2.999-2.999z"></path>
</svg>
